<svg width="64" height="64" viewBox="0 0 64 64" fill="none" xmlns="http://www.w3.org/2000/svg">
<g clip-path="url(#clip0_5_2)">
<path d="M6.60813 45.6467H0.20813C0.138753 45.6467 0.0693767 45.6549 0 45.6712C0.0693767 45.6549 0.104065 45.6794 0.104065 45.7448V51.7792C0.104065 51.861 0.0693767 51.9346 0 52C0.0693767 51.9346 0.138753 51.9019 0.20813 51.9019H6.60813C6.69485 51.9019 6.72954 51.9346 6.71219 52C6.72954 51.9346 6.73821 51.861 6.73821 51.7792V45.7448C6.73821 45.6794 6.72954 45.6549 6.71219 45.6712C6.72954 45.6549 6.69485 45.6467 6.60813 45.6467ZM19.278 45.6467H12.878C12.7913 45.6467 12.722 45.6549 12.6699 45.6712C12.722 45.6549 12.748 45.6794 12.748 45.7448V51.7792C12.748 51.861 12.722 51.9346 12.6699 52C12.722 51.9346 12.7913 51.9019 12.878 51.9019H19.278C19.3648 51.9019 19.3995 51.9346 19.3821 52C19.3995 51.9346 19.4081 51.861 19.4081 51.7792V45.7448C19.4081 45.6794 19.3995 45.6549 19.3821 45.6712C19.3995 45.6549 19.3648 45.6467 19.278 45.6467ZM31.948 45.6467H25.548C25.4612 45.6467 25.3832 45.6549 25.3138 45.6712C25.3832 45.6549 25.4179 45.6794 25.4179 45.7448V51.7792C25.4179 51.861 25.3832 51.9346 25.3138 52C25.3832 51.9346 25.4612 51.9019 25.548 51.9019H31.948C32.0347 51.9019 32.0607 51.9346 32.026 52C32.0607 51.9346 32.078 51.861 32.078 51.7792V45.7448C32.078 45.6794 32.0607 45.6549 32.026 45.6712C32.0607 45.6549 32.0347 45.6467 31.948 45.6467ZM51.226 11H44.826C44.7393 11 44.6612 11.0082 44.5919 11.0245C44.6612 11.0082 44.6959 11.0409 44.6959 11.1227V17.1571C44.6959 17.2388 44.6612 17.3042 44.5919 17.3533C44.6612 17.3042 44.7393 17.2797 44.826 17.2797H51.226C51.3127 17.2797 51.3388 17.3042 51.3041 17.3533C51.3388 17.3042 51.3561 17.2388 51.3561 17.1571V11.1227C51.3561 11.0409 51.3388 11.0082 51.3041 11.0245C51.3388 11.0082 51.3127 11 51.226 11ZM38.5561 22.9462H32.1561C32.0694 22.9462 32 22.9544 31.948 22.9707C32 22.9544 32.026 22.9871 32.026 23.0688V29.1032C32.026 29.1687 32 29.2341 31.948 29.2995C32 29.2341 32.0694 29.2014 32.1561 29.2014H38.5561C38.6428 29.2014 38.6775 29.2341 38.6602 29.2995C38.6775 29.2341 38.6862 29.1687 38.6862 29.1032V23.0688C38.6862 22.9871 38.6775 22.9544 38.6602 22.9707C38.6775 22.9544 38.6428 22.9462 38.5561 22.9462ZM51.226 22.9462H44.826C44.7393 22.9462 44.6612 22.9544 44.5919 22.9707C44.6612 22.9544 44.6959 22.9871 44.6959 23.0688V29.1032C44.6959 29.1687 44.6612 29.2341 44.5919 29.2995C44.6612 29.2341 44.7393 29.2014 44.826 29.2014H51.226C51.3127 29.2014 51.3388 29.2341 51.3041 29.2995C51.3388 29.2341 51.3561 29.1687 51.3561 29.1032V23.0688C51.3561 22.9871 51.3388 22.9544 51.3041 22.9707C51.3388 22.9544 51.3127 22.9462 51.226 22.9462ZM63.8699 22.9462H57.4959C57.4092 22.9462 57.3312 22.9544 57.2618 22.9707C57.3312 22.9544 57.3659 22.9871 57.3659 23.0688V29.1032C57.3659 29.1687 57.3312 29.2341 57.2618 29.2995C57.3312 29.2341 57.4092 29.2014 57.4959 29.2014H63.8699C63.9566 29.2014 63.9913 29.2341 63.974 29.2995C63.9913 29.2341 64 29.1687 64 29.1032V23.0688C64 22.9871 63.9913 22.9544 63.974 22.9707C63.9913 22.9544 63.9566 22.9462 63.8699 22.9462ZM51.226 34.8924H44.826C44.7393 34.8924 44.6612 34.9005 44.5919 34.9169C44.6612 34.9005 44.6959 34.9251 44.6959 34.9905V41.0249C44.6959 41.1067 44.6612 41.1802 44.5919 41.2457C44.6612 41.1802 44.7393 41.1475 44.826 41.1475H51.226C51.3127 41.1475 51.3388 41.1802 51.3041 41.2457C51.3388 41.1802 51.3561 41.1067 51.3561 41.0249V34.9905C51.3561 34.9251 51.3388 34.9005 51.3041 34.9169C51.3388 34.9005 51.3127 34.8924 51.226 34.8924Z" fill="white"/>
</g>
<defs>
<clipPath id="clip0_5_2">
<rect width="64" height="64" fill="white"/>
</clipPath>
</defs>
</svg>
